<?xml version="1.0" encoding="utf-8"?>
<svg version="1.1" xmlns="http://www.w3.org/2000/svg" xmlns:xlink="http://www.w3.org/1999/xlink" x="0px" y="0px"
	 viewBox="0 0 1000 362.1" style="enable-background:new 0 0 1000 362.1;" xml:space="preserve">
<style type="text/css">
	.st0{fill-rule:evenodd;clip-rule:evenodd;fill:#0468FF;}
	.st1{fill-rule:evenodd;clip-rule:evenodd;fill:#152242;}
</style>
<path class="st0" d="M176.1,81.9c-14.1,0-25.5-11.5-25.5-25.8s11.4-25.8,25.5-25.8c14.1,0,25.5,11.5,25.5,25.8
	S190.2,81.9,176.1,81.9L176.1,81.9z M176.1,0c-30.8,0-55.7,25.2-55.7,56.2c0,12.2,4,24.2,11.3,33.9l3.7,5.2l40.7,49.5l44.4-54.7
	c7.4-9.8,11.3-21.7,11.3-33.9C231.8,25.2,206.9,0,176.1,0L176.1,0z M197.4,261.1v-94.3h-41.3v44.3l-41.2-50L0,300.3l38.2,32.1
	l76.6-92.9l76.6,92.9l38.2-32.1L197.4,261.1z"/>
<path class="st1" d="M450.5,166.7h-36.6v128.6h-72.3V166.7h-36.6v162.7h134.8v32.6h33.2v-66.8h-22.4V166.7z M535,276.2V166.7h-36.6
	v162.7H535l76.6-109.5v109.5h36.6V166.7h-36.6L535,276.2z M963.6,166.7v63.9h-74.7v-63.9h-36.6v162.7h36.6V265h74.7v64.4h36.4V166.7
	H963.6z M780.5,260.7c0,12.8-3.6,22.8-10.6,29.7c-7.2,7-17.5,10.6-30.9,10.6c-16.7,0-25.8-7.6-25.8-21.3c0-14.4,12-22.9,32.1-22.9
	h35.2L780.5,260.7L780.5,260.7z M749.9,163.6c-19.1,0-35.6,5.2-47.6,14.9c-11.3,9.1-17.9,21.9-18.8,35.9h36.1
	c1.6-7.6,9.6-19.3,30.4-19.3c19.1,0,30.5,11.5,30.5,30.8v0.8h-36.8c-21.8,0-38.6,5-50,14.8c-10.9,9.4-16.5,22.7-16.5,39.7
	c0,14.6,5.7,27.7,16.1,36.9c10.6,9.4,25.3,14.4,42.6,14.4c27.1,0,41.8-13.3,46.9-19l2.5,13.9l0.3,1.9h30.9V226
	C816.4,187.5,790.9,163.6,749.9,163.6"/>
</svg>
